<?xml version="1.0" encoding="utf-8"?>
<!-- Generator: Adobe Illustrator 22.1.0, SVG Export Plug-In . SVG Version: 6.00 Build 0)  -->
<svg version="1.1" id="Ebene_1" xmlns="http://www.w3.org/2000/svg" xmlns:xlink="http://www.w3.org/1999/xlink" x="0px" y="0px"
	 viewBox="0 0 187.2 329.1" style="enable-background:new 0 0 187.2 329.1;" xml:space="preserve">
<style type="text/css">
	.st0{fill:#FFFFFF;}
	.st1{fill:none;}
	.st2{fill:#F53E4D;}
	.st3{fill:#C2A779;}
</style>
<path class="st0" d="M187.2,71.3l-7.8-3c-6.6-2.6-13.8-5.4-21.4-7.2l-4.8,11.8c7.7,1.8-14.8,18.9-8.2,21.5l7.8,12.9l-21,30.9
	c0,20.3,16.9,28.5,4.6,44.7c-17,22.6-16.6,22.3-39,37.6l-4,7.8l-3.4-6.1c-22.3-15.3-37.7-20.3-54.8-42.9
	c-12.2-16.2-17.6-23.1-17.6-43.4l0-51.7l0,0c20.3-7.9,34-17.4,63.8-18.1l9.8-12.4c-33.2,0.2-61.4,6-83.7,14.7l-7.8,3V136
	c0,21.9,7.1,43.1,20.3,60.6c17.7,23.6,43.6,41.2,66.4,56.8l6.9,4.6l6.9-4.7c22.8-15.6,48.7-33.2,66.4-56.8
	c13.2-17.4,20.4-38.7,20.3-60.6L187.2,71.3z"/>
<title>logo</title>
<polygon class="st1" points="43.5,294.8 48.3,294.8 45.9,279 "/>
<path class="st1" d="M66.9,278h-2.8v22.3h2.8c1.6,0,2.5-0.8,2.5-3V281C69.4,278.8,68.4,278,66.9,278z"/>
<path class="st0" d="M68.3,105.2l3.8-5.5l-24-24.2c-9.3,1.6-18.5,4.2-27.4,7.5l-2.8,1.1v35.3l52.6,53.8v-9.4l-4.2,4.2v-13.3
	l-2.5,2.5v-22.6l-5.8-3.6l14.3-20.5L68.3,105.2z M47.7,110l1.7,12.6l-8.8-9.1l-8.8,9.1l1.6-12.6l-12.6-1.2l10.9-6.5l-6.9-10.6
	l11.9,4.4l4-12l4,12l11.9-4.4l-6.9,10.6l10.9,6.5L47.7,110z"/>
<path class="st0" d="M56.4,91.7l-11.9,4.4l-4-12l-4,12l-11.8-4.4l6.9,10.6l-10.9,6.5l12.6,1.1l-1.6,12.6l8.8-9.1l8.8,9.1L47.7,110
	l12.6-1.2l-10.8-6.5L56.4,91.7z M58,108.3l-11.1,1l1.5,11.1l-7.7-8l-7.8,8l1.5-11.1l-11.1-1l9.6-5.8l-6.1-9.3l10.5,3.9l3.5-10.6
	l3.5,10.6l10.5-3.9l-6.1,9.3L58,108.3z"/>
<polygon class="st0" points="141.5,129.6 145.1,127.1 143.3,118.4 138.6,117.8 142.6,125 140.7,126.6 135.9,124.4 133.1,119.8 
	136.6,118.3 136.6,116.8 130.4,118.7 132.3,125 "/>
<path class="st0" d="M100.7,128.2l6.8,0.6h0.1l3-0.8l9.3-9.1l-0.6-1.6L110,114l-10.7,5.4l-1.7,6.6L100.7,128.2z M109.8,116.8l6.9,2
	l-6.2,5.9l-8.3-0.4l-0.5-1.9L109.8,116.8z"/>
<polygon class="st2" points="125.9,155.9 125.9,154.5 119.6,153.1 110.3,155.3 111.2,159.4 119.2,156.4 "/>
<polygon class="st2" points="129.6,156.7 131.2,157.7 136.6,157.7 143.5,159.8 143.5,158.2 141.1,155.8 131.4,155.2 "/>
<polygon class="st2" points="142.9,161.8 140.4,162.9 116.6,160.3 113.6,159.2 112.2,160.1 116.4,164.5 125.7,165.1 132.2,164.5 
	141,166.3 143.6,164.2 "/>
<polygon class="st2" points="128.9,143.2 135.9,145.3 139.3,142.8 134.2,136.8 130.9,126.3 126.9,126.6 131.9,138.1 "/>
<polygon class="st0" points="107.6,128.7 107.5,128.8 107.7,128.8 107.7,128.8 110.6,128 119.9,119 119.9,118.9 110.6,128 "/>
<path class="st3" d="M187.2,71.3l-7.8-3c-6.6-2.6-13.8-5.4-21.4-7.2l-2.7,6.7c7.7,1.8,14.9,4.7,21.5,7.2l3.2,1.2V136
	c0,20.3-6.6,40.1-18.9,56.3c-17,22.6-42.4,39.9-64.8,55.2l-2.8,1.9l-2.8-1.9C68.4,232.1,43,214.9,26,192.2
	C13.8,176,7.1,156.3,7.1,136V76.2l3.2-1.2C30.7,67.1,56,61.5,85.8,60.8l5.7-7.2c-33.2,0.2-61.4,6-83.7,14.7l-7.8,3V136
	c0,21.9,7.1,43.1,20.3,60.6c17.7,23.6,43.6,41.2,66.4,56.8l6.9,4.6l6.9-4.7c22.8-15.6,48.7-33.2,66.4-56.8
	c13.2-17.4,20.4-38.7,20.3-60.6L187.2,71.3z"/>
<polygon class="st3" points="48.4,102.6 54.5,93.2 44.1,97.1 40.6,86.5 37.1,97.1 26.6,93.2 32.7,102.6 23.2,108.3 34.3,109.4 
	32.8,120.4 40.6,112.4 48.3,120.4 46.9,109.4 58,108.3 "/>
<polygon class="st3" points="139.7,177 139.7,177 141.5,175.3 141.6,175.2 138.3,171.1 138.3,171.1 114.6,166 114.6,166 
	112.4,168.1 112.4,168.1 117.2,175.6 117.2,175.6 126.1,177.9 126.1,177.9 128.7,176.3 127.5,175.2 132.6,171.7 "/>
<polygon class="st3" points="134.3,134.7 138.6,135.9 141.1,131.3 141.2,131.2 133.1,127.1 133.1,127.1 132.4,128.9 132.4,128.9 
	134.3,134.6 "/>
<polygon class="st3" points="119,149.5 116.1,143.7 116,143.7 113.2,145 112.5,142.6 112.5,142.5 104.4,145.4 104.3,145.4 
	106.2,154.8 106.2,154.9 110.9,151.3 119,149.5 "/>
<polygon class="st3" points="141.6,150.9 139,147 139,146.9 133.9,150.2 133.8,150.2 133.8,152.2 133.8,152.3 137.2,154.9 
	137.2,154.9 141.2,155 141.6,151 "/>
<polygon class="st3" points="100,136.3 113.9,131.2 117.9,127 117.3,134 117.3,134.1 118.1,135 117.6,141.4 117.6,141.4 
	118.7,143.3 122.2,124.4 122.2,124.4 120.1,118.8 120.1,118.7 119.9,118.9 110.6,128 107.6,128.7 107.5,128.8 98.2,132.9 100,136.2 
	"/>
<path class="st0" d="M45.3,188.8v1.4h1.5v9.3h1.9v-12.2h-1.3C47.2,188.3,46.3,188.9,45.3,188.8z"/>
<path class="st0" d="M60.7,187.1c-1.9,0-2.9,1.1-2.9,3.1v0.7h1.8v-0.8c0-0.9,0.4-1.2,1-1.2s1,0.3,1,1.4v0.7c0,1-0.4,1.3-1.2,1.3
	h-0.8v1.7h0.6c0.9,0,1.3,0.4,1.3,1.6v1c0,1.1-0.4,1.4-1,1.4s-1-0.3-1-1.2v-1.1h-1.8v1c0,2,1,3.1,2.9,3.1s2.9-1.1,2.9-3.1v-1
	c0.1-1.1-0.4-2.1-1.3-2.6c0.9-0.4,1.3-1.2,1.3-2.5v-0.3C63.6,188.3,62.6,187.1,60.7,187.1z"/>
<path class="st0" d="M67.6,187.1c-1.9,0-2.9,1.1-2.9,3.1v2.2c0,1.8,0.7,2.8,2.1,2.8c0.8,0,1.5-0.4,1.8-1.1v2.2
	c0,1.2-0.4,1.5-1.1,1.5s-1-0.3-1-1.2v-0.4h-1.8v0.3c0,2,1,3.1,2.9,3.1s2.9-1.1,2.9-3.2v-6.3C70.5,188.3,69.5,187.1,67.6,187.1z
	 M68.6,192.3c0,0.9-0.4,1.2-1,1.2s-1-0.3-1-1.2v-2.2c0-0.9,0.4-1.2,1-1.2s1,0.3,1,1.2V192.3z"/>
<path class="st0" d="M53.8,187.1c-1.5-0.1-2.9,1-3,2.5c0,0.2,0,0.4,0,0.6v0.4c-0.1,1,0.4,2,1.2,2.5c-0.8,0.6-1.3,1.5-1.2,2.6v1
	c-0.2,1.5,0.9,2.9,2.4,3.1c0.2,0,0.4,0,0.6,0c1.5,0.1,2.9-1,3-2.5c0-0.2,0-0.4,0-0.6v-1c0.1-1-0.3-2-1.2-2.6
	c0.8-0.5,1.3-1.5,1.2-2.5v-0.4c0.2-1.5-0.9-2.9-2.4-3.1C54.2,187.1,54,187.1,53.8,187.1z M54.9,196.5c0,1.1-0.5,1.4-1.1,1.4
	s-1.1-0.3-1.1-1.4v-1.1c0-1,0.4-1.4,1.1-1.4s1.1,0.4,1.1,1.4V196.5z M54.9,191c0,1-0.5,1.3-1.1,1.3s-1.1-0.3-1.1-1.3v-0.7
	c0-1.1,0.5-1.4,1.1-1.4s1.1,0.3,1.1,1.4V191z"/>
<polygon points="88.3,320 85.6,320 85.6,313.3 83.1,313.3 83.1,328.9 85.6,328.9 85.6,322.2 88.3,322.2 88.3,328.9 90.8,328.9 
	90.8,313.3 88.3,313.3 "/>
<polygon points="72.2,315.5 74.8,315.5 74.8,328.9 77.3,328.9 77.3,315.5 79.8,315.5 79.8,313.3 72.2,313.3 "/>
<polygon points="111.5,322.6 109,313.3 105.9,313.3 105.9,328.9 108.1,328.9 108.1,317.6 111.2,328.9 113.7,328.9 113.7,313.3 
	111.5,313.3 "/>
<path d="M99.7,325.3c0,1.1-0.5,1.5-1.3,1.5s-1.3-0.4-1.3-1.5v-12h-2.5v11.9c0,2.5,1.2,3.9,3.7,3.9s3.7-1.4,3.7-3.9v-11.9h-2.3V325.3
	z"/>
<polygon points="164.1,292.2 159.1,273.5 152.9,273.5 152.9,304.7 157.3,304.7 157.3,282.1 163.4,304.7 168.4,304.7 168.4,273.5 
	164.1,273.5 "/>
<path d="M42.6,273.5l-5,31.2h4.5l0.8-5.6h6l0.8,5.6h4.9l-5-31.2H42.6z M43.6,294.8l2.3-15.8l2.4,15.8L43.6,294.8z"/>
<polygon points="29.5,273.5 23.1,287.1 23.1,273.5 18.2,273.5 18.2,304.7 23.1,304.7 23.1,295.1 24.6,292.2 29.4,304.7 34.4,304.7 
	27.6,287.4 34.4,273.5 "/>
<path d="M74.3,297v-15.8c0-5-2.4-7.7-7.3-7.7h-7.8v31.2H67C71.8,304.7,74.3,302,74.3,297z M69.4,297.2c0,2.2-0.9,3-2.5,3h-2.8V278
	h2.8c1.6,0,2.5,0.8,2.5,3V297.2z"/>
<polygon points="106.8,304.7 106.8,278 111.9,278 111.9,273.5 96.8,273.5 96.8,278 101.9,278 101.9,304.7 "/>
<polygon points="114.8,278 120,278 120,304.7 124.9,304.7 124.9,278 130,278 130,273.5 114.8,273.5 "/>
<polygon points="79.6,304.7 92.9,304.7 92.9,300.2 84.5,300.2 84.5,291.1 91.2,291.1 91.2,286.6 84.5,286.6 84.5,278 92.9,278 
	92.9,273.5 79.6,273.5 "/>
<polygon points="134.4,304.7 147.7,304.7 147.7,300.2 139.2,300.2 139.2,291.1 146,291.1 146,286.6 139.2,286.6 139.2,278 
	147.7,278 147.7,273.5 134.4,273.5 "/>
<path d="M56.4,91.7l-11.9,4.4l-4-12l-4,12l-11.8-4.4l6.9,10.6l-10.9,6.5l12.6,1.1l-1.6,12.6l8.8-9.1l8.8,9.1L47.7,110l12.6-1.2
	l-10.8-6.5L56.4,91.7z M46,108.7l1.3,9.6l-6.7-7l-6.7,7l1.3-9.6l-9.6-0.9l8.3-5l-5.3-8.1l9.1,3.4l3-9.2l3,9.2l9.1-3.4l-5.3,8.1
	l8.3,5L46,108.7z"/>
<path d="M53.8,188.9c-0.6,0-1.1,0.3-1.1,1.4v0.7c0,1,0.5,1.3,1.1,1.3s1.1-0.3,1.1-1.3v-0.7C54.9,189.2,54.4,188.9,53.8,188.9z"/>
<path d="M67.6,188.9c-0.6,0-1,0.3-1,1.2v2.2c0,0.9,0.4,1.2,1,1.2s1-0.3,1-1.2v-2.2C68.6,189.2,68.2,188.9,67.6,188.9z"/>
<path d="M53.8,194c-0.7,0-1.1,0.4-1.1,1.4v1.1c0,1.1,0.5,1.4,1.1,1.4s1.1-0.3,1.1-1.4v-1.1C54.9,194.4,54.5,194,53.8,194z"/>
<path d="M157.8,189.4c11.6-15.2,17.8-33.9,17.8-53V79.8l-6.8-2.6c-6.5-2.5-13.1-4.5-19.8-6c0,0,3.7-9.6,4.5-12.9
	c1.1-4.7,3-14.3,2.6-19.1c-0.4-10.2-2.9-17.4-7.1-21c-2.7-2.4-7.3-5.4-13.9-4c-3.4,0.7-5.7,3.8-5.5,7.2c0.1,1.5,1.3,6.2,1.3,6.2
	l-6,0.3l1.6,6.3c0,0,5.2,3.3,7.1,3c5.5-1.1,7.9-4.4,7.9-4.4l-1.5-6l-6.4-1.8c0,0-3.8-7.2,1.3-8c15.5-2.4,13.6,16.8,13.5,20.8
	c-0.4,4.1-1.4,8-3.1,11.8c-1.4,2.6-7.7,8.8-7.7,8.8h-7.1l-4.7,4.6l-9.3-9.3c0,0-6.9-27.9-10.9-36.5c-1.7-3.7-4.8-10.4-7.9-13
	c-2.4-2-5.3-3.4-8.5-4.1c-3-0.4-9.8,0.1-11.7,2.8c-0.8,1.1-3.5,6-3.5,6l-2.1,2l5.8,1.3c0,0,1.4,3.3,1,3.7c-1.3,1.4-9,0.5-9,0.5
	l0.9,5.1c0,0,7.1,3.5,10.9,2.9c5.3-1,5-7.2,5-7.2L84.5,11l-7.2-3c0,0,1.5-4,3.9-4.3C88.3,2.8,90.9,8,92,9.6
	c1.9,2.6,4.1,8.8,4.8,11.9c1.9,8.4,1.4,33.5,1.4,33.5l-8.5,10.6c-28.1,0.3-52.1,4.2-71.2,11.6l-6.8,2.6v56.6
	c0,19.1,6.2,37.8,17.8,53c15.5,20.7,38.1,36.1,58.1,49.8l6,4.1l6-4.1C119.6,225.5,142.3,210.1,157.8,189.4z M58,130.9l5.9,3.6v22.6
	l2.5-2.5V168l4.2-4.2v9.4l-52.6-53.8V84.1l2.8-1.1c8.9-3.3,18.1-5.8,27.4-7.5l24,24.2l-3.8,5.5l4,5.3L58,130.9z M48.7,199.5h-1.9
	v-9.3h-1.5v-1.4c1,0.1,1.9-0.6,2.1-1.5h1.3L48.7,199.5z M56.8,190.6c0.1,1-0.4,1.9-1.2,2.5c0.8,0.6,1.3,1.5,1.2,2.6v1
	c0.2,1.5-0.9,2.9-2.4,3.1c-0.2,0-0.4,0-0.6,0c-1.5,0.1-2.9-1-3-2.5c0-0.2,0-0.4,0-0.6v-1c-0.1-1,0.3-2,1.2-2.6
	c-0.8-0.5-1.3-1.5-1.2-2.5v-0.4c-0.2-1.5,0.9-2.9,2.4-3.1c0.2,0,0.4,0,0.6,0c1.5-0.1,2.9,1,3,2.5c0,0.2,0,0.4,0,0.6L56.8,190.6z
	 M63.6,190.5c0,1.3-0.4,2.1-1.3,2.5c0.9,0.5,1.5,1.5,1.3,2.6v1c0,2-1,3.1-2.9,3.1s-2.9-1.1-2.9-3.1v-1h1.8v1.1c0,0.9,0.4,1.2,1,1.2
	s1-0.3,1-1.4v-1c0-1.1-0.4-1.6-1.3-1.6h-0.6v-1.7h0.8c0.7,0,1.2-0.3,1.2-1.3v-0.7c0-1.1-0.4-1.4-1-1.4s-1,0.3-1,1.2v0.8h-1.8v-0.7
	c0-2,1-3.1,2.9-3.1s2.9,1.1,2.9,3.1L63.6,190.5z M70.6,196.5c0,2.1-1,3.2-2.9,3.2s-2.9-1.1-2.9-3.1v-0.3h1.8v0.4
	c0,0.9,0.4,1.2,1,1.2s1.1-0.3,1.1-1.5v-2.2c-0.3,0.7-1,1.1-1.8,1.1c-1.4,0-2.1-1-2.1-2.8v-2.2c0-2,1-3.1,2.9-3.1s2.9,1.1,2.9,3.1
	L70.6,196.5z M128.7,176.3l-2.5,1.5l-8.8-2.3l-4.8-7.4l2.1-2.1l23.6,5.1l3.2,4.1l-1.8,1.7l-7.1-5.3l-5.3,3.6L128.7,176.3z M141,166
	l-8.8-1.8l-6.5,0.6l-9.2-0.6l-3.9-4l1.1-0.7l2.8,1.1l24,2.6l2.3-1l0.6,2L141,166z M138.5,135.8l-4.1-1.2l-2-5.7l0.7-1.8l8,4.1
	L138.5,135.8z M141,156.1l2.3,2.3v1.1l-6.6-2h-5.4l-1.2-0.8l1.4-1.2L141,156.1z M141.2,154.9h-3.9l-3.4-2.6v-2l5.1-3.3l2.6,4
	L141.2,154.9z M130.8,126.6l3.2,10.3l4.9,5.9l-3,2.3l-6.6-1.9l2.9-4.9l-4.9-11.3L130.8,126.6z M119.2,156.1l-7.8,2.9l-0.8-3.5l9-2.2
	l6,1.4v1L119.2,156.1z M112.5,142.6l0.7,2.5l2.8-1.3l3,5.7l-8.1,1.8l-4.6,3.5l-1.9-9.3L112.5,142.6z M136.7,116.8v1.5l-3.5,1.5
	l2.8,4.6l4.8,2.2l1.9-1.6l-3.9-7.2l4.7,0.6l1.8,8.8l-3.6,2.5l-9.2-4.6l-2-6.3L136.7,116.8z M99.3,119.4L110,114l9.3,3.3l0.6,1.6v0.1
	l0.1-0.1l2.1,5.6l-3.5,18.7l-1-1.8l0.5-6.4l-0.8-1l0.7-7.2l-4.2,4.3l-13.8,5l-1.7-3.2l9.3-4.2h-0.1l-6.8-0.6l-3.1-2.3L99.3,119.4z"
	/>
<polygon points="110.5,124.7 116.7,118.8 109.8,116.8 101.7,122.4 102.2,124.3 "/>
</svg>
