<?xml version="1.0" standalone="no"?>
<!DOCTYPE svg PUBLIC "-//W3C//DTD SVG 20010904//EN"
 "http://www.w3.org/TR/2001/REC-SVG-20010904/DTD/svg10.dtd">
<svg version="1.0" xmlns="http://www.w3.org/2000/svg"
 width="200.000000pt" height="200.000000pt" viewBox="0 0 200.000000 200.000000"
 preserveAspectRatio="xMidYMid meet">
<metadata>
Created by potrace 1.11, written by Peter Selinger 2001-2013
</metadata>
<g transform="translate(0.000000,200.000000) scale(0.100000,-0.100000)"
fill="#000000" stroke="none">
<path d="M877 1990 c-16 -11 -48 -61 -47 -77 0 -5 4 -8 9 -8 15 0 34 -22 28
-33 -4 -5 -20 -8 -37 -7 -25 1 -30 -2 -30 -21 0 -17 9 -25 35 -34 47 -16 77
-10 91 18 17 35 3 74 -33 93 -24 12 -29 19 -21 32 13 25 52 21 86 -8 45 -38
63 -102 71 -249 7 -141 2 -163 -47 -209 -24 -22 -38 -25 -137 -31 -60 -3 -120
-8 -132 -10 -11 -3 -43 -8 -70 -11 -69 -10 -157 -32 -245 -62 l-78 -26 0 -269
c0 -207 4 -287 16 -346 17 -85 65 -195 115 -268 39 -57 174 -196 244 -250 28
-21 52 -42 55 -45 15 -16 235 -162 245 -162 28 0 302 202 406 301 91 85 154
169 200 267 60 128 69 194 69 503 l0 269 -97 32 c-54 18 -103 34 -109 36 -7 2
-3 28 13 74 50 149 38 297 -29 361 -17 17 -36 31 -42 31 -58 8 -76 5 -96 -13
-17 -16 -20 -28 -16 -59 5 -37 4 -39 -20 -39 -22 0 -24 -3 -18 -22 15 -52 56
-66 104 -37 34 21 33 19 20 53 -6 16 -17 26 -29 26 -23 0 -45 34 -37 56 7 18
66 19 89 1 43 -30 55 -156 23 -232 -24 -56 -66 -95 -102 -95 -17 0 -37 -7 -44
-15 -18 -21 -28 -19 -62 15 -26 26 -49 79 -63 141 -28 129 -95 281 -138 311
-34 24 -113 34 -140 18z m-163 -706 c53 -53 96 -101 96 -105 0 -5 -5 -18 -12
-29 -10 -15 -9 -22 4 -37 16 -17 13 -23 -43 -106 l-60 -87 25 -12 c25 -11 26
-14 26 -105 0 -60 4 -92 10 -88 6 4 10 -14 10 -46 0 -41 3 -50 12 -41 18 18
23 15 23 -18 1 -28 -9 -41 -17 -21 -1 5 -96 104 -210 220 l-208 211 0 144 0
144 33 12 c30 11 195 58 209 59 3 1 49 -42 102 -95z m455 -235 c50 -17 64 -56
50 -132 -17 -88 -26 -98 -25 -28 1 60 -5 74 -21 47 -12 -20 -121 -58 -129 -44
-8 12 22 38 45 38 21 0 5 13 -22 17 -31 5 -39 16 -32 45 4 15 22 34 43 46 44
24 50 25 91 11z m169 -22 c-19 -15 -9 -40 23 -57 29 -16 40 -3 23 28 -9 18
-10 28 -3 31 15 5 25 -9 32 -46 5 -26 3 -33 -13 -38 -14 -5 -64 12 -87 29 -1
0 -4 13 -8 28 -6 22 -3 27 17 31 12 2 25 5 28 5 3 1 -2 -4 -12 -11z m-38 -78
c0 -6 7 -9 15 -5 19 7 65 -13 65 -29 0 -18 -24 -35 -36 -27 -6 4 -16 16 -23
27 -11 19 -11 18 -6 -5 4 -14 16 -38 27 -53 24 -34 13 -51 -25 -42 -22 6 -24
10 -16 29 8 17 7 32 -5 61 -19 44 -20 55 -6 55 6 0 10 -5 10 -11z m-134 -136
c4 4 13 -1 20 -11 17 -22 17 -32 1 -32 -7 0 -29 -8 -49 -19 -40 -20 -48 -14
-48 33 0 25 49 50 62 32 4 -6 10 -7 14 -3z m224 -70 c0 -7 -11 -13 -25 -13
-33 0 -45 28 -19 47 16 12 20 11 31 -4 7 -9 13 -23 13 -30z m-145 -12 c15 -6
12 -9 -20 -14 -22 -3 -51 -9 -64 -13 -18 -5 -23 -4 -19 7 3 8 18 17 34 20 39
9 46 9 69 0z m153 -20 c1 -1 2 -5 2 -10 0 -6 -12 -6 -30 -1 -17 5 -39 7 -50 5
-11 -2 -20 1 -20 7 0 8 64 7 98 -1z m-162 -37 c86 -10 96 -11 132 -13 17 0 32
-5 32 -10 0 -6 -43 -8 -107 -5 -92 5 -111 8 -128 26 -15 16 -16 19 -4 15 9 -3
42 -8 75 -13z m30 -60 c91 -19 114 -29 114 -49 0 -17 -16 -20 -25 -5 -3 5 -15
15 -26 20 -16 9 -24 6 -43 -15 -22 -24 -28 -25 -63 -16 -25 7 -43 20 -55 40
-26 47 -18 49 98 25z m-641 -210 c0 -24 -3 -44 -6 -44 -8 0 -17 89 -10 96 10
9 16 -10 16 -52z m63 31 c3 -20 3 -20 -13 -1 -12 16 -15 17 -15 4 0 -9 7 -19
16 -22 23 -9 14 -51 -11 -51 -20 0 -22 11 -16 83 2 21 35 9 39 -13z m58 -17
c1 -20 -2 -42 -6 -49 -9 -14 -40 -5 -40 12 0 9 3 9 14 0 11 -9 13 -4 13 30 0
25 -3 36 -8 28 -4 -8 -11 -10 -14 -7 -11 11 6 29 23 26 12 -2 17 -14 18 -40z
m55 30 c6 -64 1 -88 -21 -88 -13 0 -20 6 -19 18 0 10 3 12 6 5 7 -18 23 -16
23 2 0 8 -7 15 -15 15 -10 0 -15 10 -15 30 0 23 4 30 20 30 11 0 21 -6 21 -12z"/>
<path d="M541 1240 l-12 -40 -36 15 c-20 8 -38 13 -41 11 -2 -3 6 -19 18 -36
12 -17 21 -33 19 -34 -2 -2 -20 -13 -39 -25 -24 -14 -30 -21 -17 -22 9 -1 22
-3 27 -4 6 -1 18 -3 29 -4 16 -1 17 -6 11 -41 -4 -22 -5 -40 -2 -40 3 0 19 12
35 28 l28 27 31 -34 31 -34 -7 46 c-6 41 -5 47 11 48 62 2 73 13 34 34 -36 18
-38 28 -11 62 25 32 21 37 -14 23 -43 -16 -54 -12 -61 20 -10 44 -21 44 -34 0z"/>
<path d="M1105 1024 c-11 -8 -27 -19 -35 -24 -19 -11 -12 -18 26 -24 24 -4 38
0 60 19 l28 24 -28 11 c-33 12 -27 13 -51 -6z"/>
<path d="M660 384 c0 -8 5 -12 10 -9 6 4 8 11 5 16 -9 14 -15 11 -15 -7z"/>
<path d="M770 430 c0 -11 5 -20 10 -20 6 0 10 9 10 20 0 11 -4 20 -10 20 -5 0
-10 -9 -10 -20z"/>
</g>
</svg>
